<svg
  xmlns="http://www.w3.org/2000/svg"
  width="256"
  height="64"
  viewBox="0 0 256 64"
  shape-rendering="crispEdges"
>
  <!-- Transparent tile with chunky clouds. Not Minecraft textures; just pixel vibe. -->

  <!-- cloud 1 -->
  <g>
    <rect x="18" y="26" width="60" height="14" fill="#ffffff" />
    <rect x="26" y="20" width="44" height="6" fill="#ffffff" />
    <rect x="30" y="40" width="52" height="6" fill="#ffffff" />
    <rect x="18" y="40" width="12" height="6" fill="#e7f2ff" />
    <rect x="30" y="46" width="44" height="4" fill="#e7f2ff" />
  </g>

  <!-- cloud 2 -->
  <g>
    <rect x="108" y="14" width="64" height="14" fill="#ffffff" />
    <rect x="120" y="8" width="40" height="6" fill="#ffffff" />
    <rect x="116" y="28" width="56" height="6" fill="#ffffff" />
    <rect x="108" y="28" width="10" height="6" fill="#e7f2ff" />
    <rect x="122" y="34" width="42" height="4" fill="#e7f2ff" />
  </g>

  <!-- cloud 3 -->
  <g>
    <rect x="182" y="30" width="56" height="12" fill="#ffffff" />
    <rect x="190" y="24" width="40" height="6" fill="#ffffff" />
    <rect x="186" y="42" width="50" height="6" fill="#ffffff" />
    <rect x="182" y="42" width="10" height="6" fill="#e7f2ff" />
    <rect x="196" y="48" width="34" height="4" fill="#e7f2ff" />
  </g>

  <!-- small puff -->
  <g>
    <rect x="70" y="10" width="22" height="6" fill="#ffffff" />
    <rect x="74" y="16" width="18" height="4" fill="#e7f2ff" />
  </g>
</svg>
